<?xml version="1.0" encoding="UTF-8"?>
<!DOCTYPE svg PUBLIC "-//W3C//DTD SVG 1.1//EN" "http://www.w3.org/Graphics/SVG/1.1/DTD/svg11.dtd">
<svg xmlns="http://www.w3.org/2000/svg" version="1.1" width="1016px" height="1014px" style="shape-rendering:geometricPrecision; text-rendering:geometricPrecision; image-rendering:optimizeQuality; fill-rule:evenodd; clip-rule:evenodd" xmlns:xlink="http://www.w3.org/1999/xlink">
<g><path style="opacity:1" fill="#fefefe" d="M -0.5,-0.5 C 338.167,-0.5 676.833,-0.5 1015.5,-0.5C 1015.5,337.5 1015.5,675.5 1015.5,1013.5C 676.833,1013.5 338.167,1013.5 -0.5,1013.5C -0.5,675.5 -0.5,337.5 -0.5,-0.5 Z"/></g>
<g><path style="opacity:1" fill="#f8d8e1" d="M 1005.5,237.5 C 1005.82,420.511 1005.49,603.511 1004.5,786.5C 993.786,866.026 954.786,927.526 887.5,971C 851.425,992.539 812.425,1004.54 770.5,1007C 593.833,1007.67 417.167,1007.67 240.5,1007C 142.064,996.744 71.5642,947.244 29,858.5C 25.6571,849.8 22.3238,841.133 19,832.5C 15.03,816.622 11.6966,800.622 9,784.5C 8.33333,599.833 8.33333,415.167 9,230.5C 22.563,138.852 70.7296,72.3523 153.5,31C 180.952,18.9419 209.619,11.6086 239.5,9C 415.833,8.33333 592.167,8.33333 768.5,9C 842.95,13.9742 904.117,44.8076 952,101.5C 983.852,141.205 1001.69,186.538 1005.5,237.5 Z"/></g>
<g><path style="opacity:1" fill="#f8dce5" d="M 1005.5,237.5 C 1006.67,418 1006.83,598.666 1006,779.5C 1005.81,782.036 1005.31,784.369 1004.5,786.5C 1005.49,603.511 1005.82,420.511 1005.5,237.5 Z"/></g>
<g><path style="opacity:1" fill="#e78eb2" d="M 236.5,677.5 C 233.224,682.393 232.89,687.393 235.5,692.5C 236.183,696.02 238.183,698.52 241.5,700C 252.094,701.263 262.761,701.93 273.5,702C 274.406,703.699 274.739,705.533 274.5,707.5C 244.167,707.5 213.833,707.5 183.5,707.5C 183.261,705.533 183.594,703.699 184.5,702C 192.167,701.667 199.833,701.333 207.5,701C 218.614,697.886 225.781,690.719 229,679.5C 276.221,555.197 323.888,430.863 372,306.5C 374.333,305.167 376.667,305.167 379,306.5C 426.385,434.7 474.052,562.366 522,689.5C 526.617,695.222 532.45,699.056 539.5,701C 547.167,701.333 554.833,701.667 562.5,702C 564.658,703.312 564.991,704.978 563.5,707C 520.835,707.5 478.168,707.667 435.5,707.5C 435.261,705.533 435.594,703.699 436.5,702C 446.167,701.667 455.833,701.333 465.5,701C 472.502,699.007 475.836,694.341 475.5,687C 475.381,682.692 474.548,678.525 473,674.5C 460.282,641.726 448.115,608.726 436.5,575.5C 382.832,575.333 329.166,575.5 275.5,576C 262.397,609.812 249.397,643.646 236.5,677.5 Z"/></g>
<g><path style="opacity:1" fill="#e78db2" d="M 660.5,323.5 C 659.501,380.998 659.168,438.664 659.5,496.5C 682.673,496.831 705.673,496.498 728.5,495.5C 740.197,495.326 751.197,492.493 761.5,487C 766.18,482.806 769.18,477.639 770.5,471.5C 771.117,471.389 771.617,471.056 772,470.5C 772.5,462.173 772.666,453.84 772.5,445.5C 773.919,444.549 775.585,444.216 777.5,444.5C 777.667,480.502 777.5,516.502 777,552.5C 775.333,553.833 773.667,553.833 772,552.5C 777.206,518.546 762.706,501.879 728.5,502.5C 705.673,501.502 682.673,501.169 659.5,501.5C 659.168,565.002 659.501,628.336 660.5,691.5C 661.169,696.334 663.836,699.5 668.5,701C 682.833,701.333 697.167,701.667 711.5,702C 712.833,703.667 712.833,705.333 711.5,707C 670.501,707.5 629.501,707.667 588.5,707.5C 588.261,705.533 588.594,703.699 589.5,702C 597.167,701.667 604.833,701.333 612.5,701C 615.257,700.062 617.59,698.562 619.5,696.5C 620.931,696.119 621.764,695.119 622,693.5C 622.833,569.999 622.666,446.666 621.5,323.5C 621.34,321.847 620.674,320.514 619.5,319.5C 617.929,316.769 615.595,314.935 612.5,314C 604.833,313.667 597.167,313.333 589.5,313C 588.167,311.333 588.167,309.667 589.5,308C 670.166,307.5 750.833,307.333 831.5,307.5C 831.5,343.5 831.5,379.5 831.5,415.5C 829.533,415.739 827.699,415.406 826,414.5C 825.667,398.5 825.333,382.5 825,366.5C 820.493,342.993 806.993,327.16 784.5,319C 777.258,316.952 769.925,315.285 762.5,314C 731.5,313.333 700.5,313.333 669.5,314C 664.585,315.315 661.585,318.482 660.5,323.5 Z"/></g>
<g><path style="opacity:1" fill="#f6d0dc" d="M 619.5,319.5 C 620.674,320.514 621.34,321.847 621.5,323.5C 621.833,446.668 621.5,569.668 620.5,692.5C 620.826,568.145 620.493,443.812 619.5,319.5 Z"/></g>
<g><path style="opacity:1" fill="#f0b2c9" d="M 660.5,323.5 C 660.5,380.833 660.5,438.167 660.5,495.5C 683.167,495.5 705.833,495.5 728.5,495.5C 705.673,496.498 682.673,496.831 659.5,496.5C 659.168,438.664 659.501,380.998 660.5,323.5 Z"/></g>
<g><path style="opacity:1" fill="#eba4c1" d="M 621.5,323.5 C 622.666,446.666 622.833,569.999 622,693.5C 621.764,695.119 620.931,696.119 619.5,696.5C 619.833,695.167 620.167,693.833 620.5,692.5C 621.5,569.668 621.833,446.668 621.5,323.5 Z"/></g>
<g><path style="opacity:1" fill="#f7d7e1" d="M 432.5,565.5 C 432.5,566.5 432.5,567.5 432.5,568.5C 380.997,568.832 329.664,568.499 278.5,567.5C 304.516,499.099 330.682,430.766 357,362.5C 382.28,430.179 407.447,497.846 432.5,565.5 Z"/></g>
<g><path style="opacity:1" fill="#ea9dbc" d="M 772.5,445.5 C 772.666,453.84 772.5,462.173 772,470.5C 771.617,471.056 771.117,471.389 770.5,471.5C 770.971,462.67 771.638,454.004 772.5,445.5 Z"/></g>
<g><path style="opacity:1" fill="#f0b2c9" d="M 728.5,502.5 C 705.833,502.5 683.167,502.5 660.5,502.5C 660.5,565.5 660.5,628.5 660.5,691.5C 659.501,628.336 659.168,565.002 659.5,501.5C 682.673,501.169 705.673,501.502 728.5,502.5 Z"/></g>
<g><path style="opacity:1" fill="#f4c4d5" d="M 432.5,565.5 C 433.434,566.568 433.768,567.901 433.5,569.5C 381.496,569.833 329.496,569.5 277.5,568.5C 277.624,567.893 277.957,567.56 278.5,567.5C 329.664,568.499 380.997,568.832 432.5,568.5C 432.5,567.5 432.5,566.5 432.5,565.5 Z"/></g>
<g><path style="opacity:1" fill="#f4c5d6" d="M 236.5,677.5 C 235.746,682.463 235.413,687.463 235.5,692.5C 232.89,687.393 233.224,682.393 236.5,677.5 Z"/></g>
</svg>
